<svg id="SvgjsSvg1001" width="288" height="288" xmlns="http://www.w3.org/2000/svg" version="1.1" xmlns:xlink="http://www.w3.org/1999/xlink" xmlns:svgjs="http://svgjs.com/svgjs"><defs id="SvgjsDefs1002"></defs><g id="SvgjsG1008"><svg xmlns="http://www.w3.org/2000/svg" id="Layer_1" x="0" y="0" version="1.0" xml:space="preserve" viewBox="0 0 32 32" width="288" height="288"><path style="line-height:normal;text-indent:0;text-align:start;text-decoration-line:none;text-decoration-style:solid;text-decoration-color:#000;text-transform:none;block-progression:tb;white-space:normal;isolation:auto;mix-blend-mode:normal;solid-color:#000;solid-opacity:1" id="path5777" fill="#000000" fill-opacity="1" fill-rule="evenodd" stroke="none" stroke-dasharray="none" stroke-dashoffset="0" stroke-linecap="butt" stroke-linejoin="miter" stroke-miterlimit="4" stroke-opacity="1" stroke-width="1" d="M9.854 0v9.854H0v1h9.854v10.292H0v1h9.854V32h1v-9.854h10.292V32h1v-9.854H32v-1h-9.854V10.854H32v-1h-9.854V0h-1v9.854H10.854V0h-1zm1 10.854h10.292v10.292H10.854V10.854zm16.535 1.351A3.803 3.803 0 0 0 23.594 16a3.803 3.803 0 0 0 3.795 3.795A3.801 3.801 0 0 0 31.182 16a3.801 3.801 0 0 0-3.793-3.795zm-13.86.617-.707.707L15.293 16l-2.47 2.47.706.708L16 16.707l2.47 2.47.708-.706L16.707 16l2.47-2.47-.706-.708L16 15.293l-2.47-2.47zm13.86.383A2.786 2.786 0 0 1 30.182 16a2.786 2.786 0 0 1-2.793 2.795A2.788 2.788 0 0 1 24.594 16a2.788 2.788 0 0 1 2.795-2.795zM16 23.588a3.801 3.801 0 0 0-3.795 3.793A3.803 3.803 0 0 0 16 31.176a3.803 3.803 0 0 0 3.795-3.795A3.801 3.801 0 0 0 16 23.588zm-13.676.617-.707.707 2.469 2.47-2.469 2.47.707.707 2.469-2.47 2.47 2.47.708-.707-2.471-2.47 2.47-2.47-.706-.707-2.471 2.47-2.469-2.47zM16 24.588a2.786 2.786 0 0 1 2.795 2.793A2.788 2.788 0 0 1 16 30.176a2.788 2.788 0 0 1-2.795-2.795A2.786 2.786 0 0 1 16 24.588z" baseline-shift="baseline" clip-rule="nonzero" color="#000" color-interpolation="sRGB" color-interpolation-filters="linearRGB" color-rendering="auto" direction="ltr" display="inline" enable-background="accumulate" font-family="sans-serif" font-size="medium" font-stretch="normal" font-style="normal" font-variant="normal" font-weight="400" image-rendering="auto" letter-spacing="normal" opacity="1" overflow="visible" shape-rendering="auto" text-anchor="start" text-decoration="none" text-rendering="auto" visibility="visible" word-spacing="normal" writing-mode="lr-tb" class="color000 svgShape"></path></svg></g></svg>